<svg xmlns="http://www.w3.org/2000/svg" viewBox="0 0 487.46 122.31"><defs><style>.cls-1{fill:#2d3a43;}</style></defs><g id="Layer_2" data-name="Layer 2"><g id="Layer_1-2" data-name="Layer 1"><circle class="cls-1" cx="3.91" cy="3.91" r="3.91"/><circle class="cls-1" cx="34.85" cy="3.91" r="3.91"/><circle class="cls-1" cx="65.8" cy="3.91" r="3.91"/><circle class="cls-1" cx="96.74" cy="3.91" r="3.91"/><circle class="cls-1" cx="19.38" cy="32.49" r="3.91"/><circle class="cls-1" cx="50.33" cy="32.49" r="3.91"/><circle class="cls-1" cx="81.27" cy="32.49" r="3.91"/><circle class="cls-1" cx="112.22" cy="32.49" r="3.91"/><circle class="cls-1" cx="3.91" cy="61.16" r="3.91"/><circle class="cls-1" cx="34.85" cy="61.16" r="3.91"/><circle class="cls-1" cx="65.8" cy="61.16" r="3.91"/><circle class="cls-1" cx="96.74" cy="61.16" r="3.91"/><circle class="cls-1" cx="19.38" cy="89.74" r="3.91"/><circle class="cls-1" cx="50.33" cy="89.74" r="3.91"/><circle class="cls-1" cx="81.27" cy="89.74" r="3.91"/><circle class="cls-1" cx="112.22" cy="89.74" r="3.91"/><circle class="cls-1" cx="127.69" cy="3.91" r="3.91"/><circle class="cls-1" cx="158.63" cy="3.91" r="3.91"/><circle class="cls-1" cx="189.58" cy="3.91" r="3.91"/><circle class="cls-1" cx="220.52" cy="3.91" r="3.91"/><circle class="cls-1" cx="143.16" cy="32.49" r="3.91"/><circle class="cls-1" cx="174.11" cy="32.49" r="3.91"/><circle class="cls-1" cx="205.05" cy="32.49" r="3.91"/><circle class="cls-1" cx="235.99" cy="32.49" r="3.91"/><circle class="cls-1" cx="127.69" cy="61.16" r="3.91"/><circle class="cls-1" cx="158.63" cy="61.16" r="3.91"/><circle class="cls-1" cx="189.58" cy="61.16" r="3.91"/><circle class="cls-1" cx="220.52" cy="61.16" r="3.91"/><circle class="cls-1" cx="143.16" cy="89.74" r="3.91"/><circle class="cls-1" cx="174.11" cy="89.74" r="3.91"/><circle class="cls-1" cx="205.05" cy="89.74" r="3.91"/><circle class="cls-1" cx="235.99" cy="89.74" r="3.91"/><circle class="cls-1" cx="3.91" cy="118.4" r="3.91"/><circle class="cls-1" cx="34.85" cy="118.4" r="3.91"/><circle class="cls-1" cx="65.8" cy="118.4" r="3.91"/><circle class="cls-1" cx="96.74" cy="118.4" r="3.91"/><circle class="cls-1" cx="127.69" cy="118.4" r="3.91"/><circle class="cls-1" cx="158.63" cy="118.4" r="3.91"/><circle class="cls-1" cx="189.58" cy="118.4" r="3.91"/><circle class="cls-1" cx="220.52" cy="118.4" r="3.91"/><circle class="cls-1" cx="251.47" cy="3.91" r="3.91"/><circle class="cls-1" cx="282.41" cy="3.91" r="3.91"/><circle class="cls-1" cx="313.36" cy="3.91" r="3.91"/><circle class="cls-1" cx="344.3" cy="3.91" r="3.91"/><circle class="cls-1" cx="266.94" cy="32.49" r="3.91"/><circle class="cls-1" cx="297.88" cy="32.49" r="3.91"/><circle class="cls-1" cx="328.83" cy="32.49" r="3.91"/><circle class="cls-1" cx="359.77" cy="32.49" r="3.91"/><circle class="cls-1" cx="251.47" cy="61.16" r="3.91"/><circle class="cls-1" cx="282.41" cy="61.16" r="3.91"/><circle class="cls-1" cx="313.36" cy="61.16" r="3.91"/><circle class="cls-1" cx="344.3" cy="61.16" r="3.91"/><circle class="cls-1" cx="266.94" cy="89.74" r="3.91"/><circle class="cls-1" cx="297.88" cy="89.74" r="3.91"/><circle class="cls-1" cx="328.83" cy="89.74" r="3.91"/><circle class="cls-1" cx="359.77" cy="89.74" r="3.91"/><circle class="cls-1" cx="375.25" cy="3.91" r="3.91"/><circle class="cls-1" cx="406.19" cy="3.91" r="3.91"/><circle class="cls-1" cx="437.14" cy="3.91" r="3.91"/><circle class="cls-1" cx="468.08" cy="3.91" r="3.91"/><circle class="cls-1" cx="390.72" cy="32.49" r="3.91"/><circle class="cls-1" cx="421.66" cy="32.49" r="3.91"/><circle class="cls-1" cx="452.61" cy="32.49" r="3.91"/><circle class="cls-1" cx="483.55" cy="32.49" r="3.91"/><circle class="cls-1" cx="375.25" cy="61.16" r="3.91"/><circle class="cls-1" cx="406.19" cy="61.16" r="3.91"/><circle class="cls-1" cx="437.14" cy="61.16" r="3.91"/><circle class="cls-1" cx="468.08" cy="61.16" r="3.91"/><circle class="cls-1" cx="390.72" cy="89.74" r="3.91"/><circle class="cls-1" cx="421.66" cy="89.74" r="3.91"/><circle class="cls-1" cx="452.61" cy="89.74" r="3.91"/><circle class="cls-1" cx="483.55" cy="89.74" r="3.91"/><circle class="cls-1" cx="251.47" cy="118.4" r="3.91"/><circle class="cls-1" cx="282.41" cy="118.4" r="3.91"/><circle class="cls-1" cx="313.36" cy="118.4" r="3.91"/><circle class="cls-1" cx="344.3" cy="118.4" r="3.91"/><circle class="cls-1" cx="375.25" cy="118.4" r="3.91"/><circle class="cls-1" cx="406.19" cy="118.4" r="3.91"/><circle class="cls-1" cx="437.14" cy="118.4" r="3.91"/><circle class="cls-1" cx="468.08" cy="118.4" r="3.91"/></g></g></svg>