<svg xmlns="http://www.w3.org/2000/svg" xmlns:xlink="http://www.w3.org/1999/xlink" viewBox="0 0 205.22 205.22"><defs><style>.cls-1{fill:url(#linear-gradient);}.cls-2{fill:url(#linear-gradient-2);}.cls-3{fill:url(#linear-gradient-3);}.cls-4{fill:url(#linear-gradient-4);}.cls-5{fill:url(#linear-gradient-5);}.cls-6{fill:url(#linear-gradient-6);}.cls-7{fill:url(#linear-gradient-7);}.cls-8{fill:url(#linear-gradient-8);}.cls-9{fill:url(#linear-gradient-9);}.cls-10{fill:url(#linear-gradient-10);}.cls-11{fill:url(#linear-gradient-11);}.cls-12{fill:url(#linear-gradient-12);}.cls-13{fill:url(#linear-gradient-13);}.cls-14{fill:url(#linear-gradient-14);}.cls-15{fill:url(#linear-gradient-15);}.cls-16{fill:url(#linear-gradient-16);}.cls-17{fill:url(#linear-gradient-17);}.cls-18{fill:url(#linear-gradient-18);}.cls-19{fill:url(#linear-gradient-19);}.cls-20{fill:url(#linear-gradient-20);}.cls-21{fill:url(#linear-gradient-21);}.cls-22{fill:url(#linear-gradient-22);}.cls-23{fill:url(#linear-gradient-23);}.cls-24{fill:url(#linear-gradient-24);}.cls-25{fill:url(#linear-gradient-25);}.cls-26{fill:url(#linear-gradient-26);}.cls-27{fill:url(#linear-gradient-27);}.cls-28{fill:url(#linear-gradient-28);}.cls-29{fill:url(#linear-gradient-29);}</style><linearGradient id="linear-gradient" x1="126.54" y1="-61.95" x2="-79.47" y2="137.62" gradientUnits="userSpaceOnUse"><stop offset="0" stop-color="#25b9ef"/><stop offset="1" stop-color="#08d18b"/></linearGradient><linearGradient id="linear-gradient-2" x1="131.48" y1="-56.85" x2="-74.54" y2="142.71" xlink:href="#linear-gradient"/><linearGradient id="linear-gradient-3" x1="136.52" y1="-51.64" x2="-69.49" y2="147.92" xlink:href="#linear-gradient"/><linearGradient id="linear-gradient-4" x1="141.57" y1="-46.43" x2="-64.44" y2="153.13" xlink:href="#linear-gradient"/><linearGradient id="linear-gradient-5" x1="146.62" y1="-41.22" x2="-59.39" y2="158.35" xlink:href="#linear-gradient"/><linearGradient id="linear-gradient-6" x1="151.68" y1="-36" x2="-54.34" y2="163.56" xlink:href="#linear-gradient"/><linearGradient id="linear-gradient-7" x1="156.73" y1="-30.79" x2="-49.29" y2="168.78" xlink:href="#linear-gradient"/><linearGradient id="linear-gradient-8" x1="161.78" y1="-25.57" x2="-44.23" y2="174" xlink:href="#linear-gradient"/><linearGradient id="linear-gradient-9" x1="166.83" y1="-20.35" x2="-39.18" y2="179.21" xlink:href="#linear-gradient"/><linearGradient id="linear-gradient-10" x1="171.89" y1="-15.14" x2="-34.13" y2="184.43" xlink:href="#linear-gradient"/><linearGradient id="linear-gradient-11" x1="176.94" y1="-9.92" x2="-29.08" y2="189.64" xlink:href="#linear-gradient"/><linearGradient id="linear-gradient-12" x1="181.99" y1="-4.71" x2="-24.02" y2="194.86" xlink:href="#linear-gradient"/><linearGradient id="linear-gradient-13" x1="187.05" y1="0.51" x2="-18.97" y2="200.08" xlink:href="#linear-gradient"/><linearGradient id="linear-gradient-14" x1="192.1" y1="5.73" x2="-13.92" y2="205.29" xlink:href="#linear-gradient"/><linearGradient id="linear-gradient-15" x1="197.15" y1="10.94" x2="-8.87" y2="210.51" xlink:href="#linear-gradient"/><linearGradient id="linear-gradient-16" x1="202.2" y1="16.16" x2="-3.81" y2="215.72" xlink:href="#linear-gradient"/><linearGradient id="linear-gradient-17" x1="207.26" y1="21.38" x2="1.24" y2="220.94" xlink:href="#linear-gradient"/><linearGradient id="linear-gradient-18" x1="212.31" y1="26.59" x2="6.3" y2="226.16" xlink:href="#linear-gradient"/><linearGradient id="linear-gradient-19" x1="217.36" y1="31.81" x2="11.35" y2="231.37" xlink:href="#linear-gradient"/><linearGradient id="linear-gradient-20" x1="222.41" y1="37.02" x2="16.4" y2="236.59" xlink:href="#linear-gradient"/><linearGradient id="linear-gradient-21" x1="227.47" y1="42.24" x2="21.45" y2="241.81" xlink:href="#linear-gradient"/><linearGradient id="linear-gradient-22" x1="232.52" y1="47.46" x2="26.5" y2="247.02" xlink:href="#linear-gradient"/><linearGradient id="linear-gradient-23" x1="237.57" y1="52.67" x2="31.56" y2="252.24" xlink:href="#linear-gradient"/><linearGradient id="linear-gradient-24" x1="242.63" y1="57.89" x2="36.61" y2="257.45" xlink:href="#linear-gradient"/><linearGradient id="linear-gradient-25" x1="247.68" y1="63.1" x2="41.66" y2="262.67" xlink:href="#linear-gradient"/><linearGradient id="linear-gradient-26" x1="252.73" y1="68.32" x2="46.71" y2="267.88" xlink:href="#linear-gradient"/><linearGradient id="linear-gradient-27" x1="257.78" y1="73.53" x2="51.76" y2="273.09" xlink:href="#linear-gradient"/><linearGradient id="linear-gradient-28" x1="262.82" y1="78.74" x2="56.81" y2="278.3" xlink:href="#linear-gradient"/><linearGradient id="linear-gradient-29" x1="267.8" y1="83.87" x2="61.78" y2="283.44" xlink:href="#linear-gradient"/></defs><g id="Layer_2" data-name="Layer 2"><g id="Layer_1-2" data-name="Layer 1"><path class="cls-1" d="M45,17.69,17.68,45A103.28,103.28,0,0,1,45,17.69Z"/><path class="cls-2" d="M66.35,6.59,6.59,66.35c.58-1.53,1.2-3.07,1.86-4.59L61.77,8.44Q64,7.47,66.35,6.59Z"/><path class="cls-3" d="M80.91,2.31,2.31,80.92c.26-1.21.53-2.4.84-3.59L77.34,3.15C78.52,2.84,79.72,2.56,80.91,2.31Z"/><path class="cls-4" d="M93.05.44.44,93.05c.1-1,.21-2,.33-3.07L90,.78C91,.65,92,.54,93.05.44Z"/><path class="cls-5" d="M103.75,0,0,103.76c0-.92,0-1.84,0-2.75L101,0C101.92,0,102.84,0,103.75,0Z"/><path class="cls-6" d="M113.46.58.57,113.47c-.09-.84-.16-1.67-.23-2.5L111,.34Q112.22.44,113.46.58Z"/><path class="cls-7" d="M122.39,1.92,1.91,122.4c-.15-.78-.29-1.54-.42-2.32L120.08,1.5C120.85,1.63,121.62,1.76,122.39,1.92Z"/><path class="cls-8" d="M130.69,3.9,3.9,130.69c-.2-.72-.4-1.43-.58-2.16L128.53,3.32C129.25,3.5,130,3.7,130.69,3.9Z"/><path class="cls-9" d="M138.43,6.43l-132,132c-.25-.67-.49-1.34-.73-2L136.41,5.71C137.09,5.94,137.76,6.18,138.43,6.43Z"/><path class="cls-10" d="M145.68,9.45,9.45,145.68c-.3-.62-.58-1.25-.85-1.88L143.79,8.6C144.42,8.87,145.06,9.15,145.68,9.45Z"/><path class="cls-11" d="M152.49,12.91,12.91,152.5c-.33-.59-.65-1.18-1-1.78L150.72,12C151.32,12.26,151.9,12.59,152.49,12.91Z"/><path class="cls-12" d="M158.89,16.79,16.78,158.89c-.36-.55-.72-1.11-1.06-1.66L157.22,15.72C157.78,16.07,158.34,16.42,158.89,16.79Z"/><path class="cls-13" d="M164.9,21.06,21.06,164.9c-.41-.52-.8-1-1.18-1.57L163.33,19.88C163.86,20.26,164.38,20.66,164.9,21.06Z"/><path class="cls-14" d="M170.53,25.7,25.69,170.54c-.43-.49-.85-1-1.27-1.48L169.06,24.42C169.56,24.85,170.05,25.27,170.53,25.7Z"/><path class="cls-15" d="M175.16,30.05l.64.65L30.7,175.8c-.22-.2-.43-.42-.65-.63s-.49-.49-.72-.74l145.1-145.1Z"/><path class="cls-16" d="M179.44,34.6c.43.48.86,1,1.28,1.46L36.06,180.72l-1.47-1.27Z"/><path class="cls-17" d="M184.09,40.23c.39.51.79,1,1.17,1.55L41.78,185.26q-.78-.57-1.56-1.17Z"/><path class="cls-18" d="M188.36,46.22l1.08,1.67L47.89,189.44l-1.67-1.07Z"/><path class="cls-19" d="M192.24,52.61c.33.59.66,1.18,1,1.78L54.39,193.21c-.6-.31-1.19-.64-1.78-1Z"/><path class="cls-20" d="M195.71,59.41c.29.63.58,1.26.85,1.89L61.3,196.57l-1.89-.86Z"/><path class="cls-21" d="M198.74,66.67c.25.66.49,1.33.73,2L68.67,199.47c-.67-.23-1.34-.48-2-.73Z"/><path class="cls-22" d="M201.28,74.4c.21.71.4,1.43.58,2.15L76.55,201.87c-.72-.19-1.44-.38-2.15-.59Z"/><path class="cls-23" d="M203.27,82.68c.15.77.3,1.54.43,2.32L85,203.7c-.77-.13-1.54-.27-2.31-.43Z"/><path class="cls-24" d="M204.63,91.59c.09.84.17,1.67.23,2.51L94.1,204.87c-.84-.07-1.67-.15-2.51-.24Z"/><path class="cls-25" d="M205.21,101.29c0,.91,0,1.83,0,2.75L104,205.2c-.91,0-1.83,0-2.75,0Z"/><path class="cls-26" d="M204.79,112c-.09,1-.2,2-.32,3.06L115,204.47c-1,.12-2,.23-3.06.32Z"/><path class="cls-27" d="M203,124.09c-.26,1.19-.53,2.38-.82,3.55l-74.49,74.49c-1.19.3-2.38.58-3.56.83Z"/><path class="cls-28" d="M198.74,138.58q-.87,2.31-1.84,4.58L143.16,196.9q-2.28,1-4.58,1.84Z"/><path class="cls-29" d="M187.91,159.68a103.8,103.8,0,0,1-28.23,28.23Z"/></g></g></svg>