<svg xmlns="http://www.w3.org/2000/svg" xmlns:xlink="http://www.w3.org/1999/xlink" viewBox="0 0 63.03 63.03"><defs><style>.cls-1{fill:url(#linear-gradient);}</style><linearGradient id="linear-gradient" x1="62.26" y1="1.73" x2="0.77" y2="61.3" gradientUnits="userSpaceOnUse"><stop offset="0" stop-color="#fca522"/><stop offset="1" stop-color="#e24550"/></linearGradient></defs><g id="Layer_2" data-name="Layer 2"><g id="Layer_1-2" data-name="Layer 1"><path class="cls-1" d="M0,4.24V58.79A4.24,4.24,0,0,0,4.24,63H58.79A4.24,4.24,0,0,0,63,58.79V4.24A4.24,4.24,0,0,0,58.79,0H4.24A4.24,4.24,0,0,0,0,4.24Zm55.27,52.9H7.76a1.87,1.87,0,0,1-1.87-1.87V7.76A1.86,1.86,0,0,1,7.76,5.89H55.27a1.87,1.87,0,0,1,1.87,1.87V55.27A1.87,1.87,0,0,1,55.27,57.14Z"/></g></g></svg>